<?xml version="1.0" standalone="no"?>
<!DOCTYPE svg PUBLIC "-//W3C//DTD SVG 20010904//EN"
 "http://www.w3.org/TR/2001/REC-SVG-20010904/DTD/svg10.dtd">
<svg version="1.0" xmlns="http://www.w3.org/2000/svg"
 width="1720.000000pt" height="1720.000000pt" viewBox="0 0 1720.000000 1720.000000"
 preserveAspectRatio="xMidYMid meet">
<metadata>
Created by potrace 1.11, written by Peter Selinger 2001-2013
</metadata>
<g transform="translate(0.000000,1720.000000) scale(0.100000,-0.100000)"
fill="#000000" stroke="none">
<path d="M7081 16650 c-725 -7 -907 -11 -1396 -31 -531 -20 -817 -42 -1115
-85 -912 -129 -1674 -438 -2290 -928 -252 -200 -621 -591 -817 -866 -382 -535
-647 -1226 -773 -2020 -57 -361 -80 -688 -112 -1600 -18 -501 -18 -4481 0
-5020 15 -466 38 -969 52 -1145 42 -516 135 -999 271 -1405 234 -701 535
-1197 1019 -1680 356 -357 659 -578 1077 -785 635 -315 1337 -483 2228 -535
782 -45 1363 -54 3530 -54 2129 -1 2680 8 3385 54 843 56 1533 226 2129 524
909 456 1628 1236 2001 2171 257 642 367 1239 410 2220 27 624 32 937 37 2575
6 2094 -4 2949 -47 3820 -48 966 -218 1702 -545 2357 -136 273 -270 482 -474
738 -127 161 -482 514 -651 648 -734 585 -1664 908 -2840 986 -544 37 -1078
51 -2340 61 -1245 10 -1625 10 -2739 0z m3524 -580 c507 -10 1097 -32 1340
-50 893 -66 1641 -272 2240 -616 387 -222 742 -520 969 -814 262 -339 459
-694 605 -1093 217 -594 312 -1143 351 -2027 32 -744 35 -955 35 -2865 0
-2061 -8 -2537 -56 -3275 -48 -753 -192 -1382 -442 -1942 -216 -483 -567 -972
-887 -1234 -630 -518 -1337 -818 -2250 -958 -355 -54 -667 -75 -1605 -108
-507 -18 -4128 -18 -4625 0 -982 35 -1349 66 -1775 148 -1006 194 -1871 670
-2379 1309 -501 631 -810 1449 -915 2418 -33 302 -47 542 -73 1252 -18 476
-18 4177 0 4670 26 739 41 1000 72 1286 80 734 274 1389 565 1905 170 302 368
568 574 775 325 324 790 619 1266 804 478 185 1005 302 1595 354 255 23 1160
58 1635 64 590 8 3349 5 3760 -3z"/>
<path d="M11210 15264 c-19 -2 -80 -9 -135 -14 -255 -27 -565 -95 -779 -172
-61 -22 -122 -43 -136 -48 -62 -19 -258 -108 -395 -179 -197 -102 -383 -217
-555 -344 -519 -382 -987 -883 -1282 -1377 -272 -453 -452 -957 -527 -1475
-39 -269 -45 -367 -46 -700 0 -344 8 -478 50 -804 25 -191 23 -227 -13 -217
-9 3 -84 10 -167 15 -82 6 -188 14 -235 17 -161 12 -632 5 -830 -11 -1010 -83
-1842 -409 -2572 -1009 -167 -138 -450 -420 -592 -591 -527 -635 -830 -1298
-931 -2045 -35 -263 -36 -656 -1 -930 97 -759 436 -1491 971 -2100 616 -700
1391 -1115 2295 -1227 202 -25 667 -25 865 0 738 94 1398 367 1985 821 134
103 477 440 632 620 827 957 1213 2081 1157 3371 -5 132 -16 299 -23 370 -13
139 -12 161 10 169 8 3 67 -3 132 -14 534 -89 1041 -105 1477 -44 731 101
1398 408 2030 933 182 152 525 492 661 656 423 511 713 1078 859 1679 137 560
147 1068 35 1626 -141 701 -470 1321 -965 1815 -290 290 -599 530 -925 716
-437 251 -908 409 -1410 474 -119 15 -561 28 -640 19z m570 -404 c283 -26 525
-87 835 -211 245 -99 295 -124 295 -147 0 -11 -37 -41 -98 -82 -191 -126 -351
-308 -456 -518 -41 -81 -58 -134 -107 -324 -5 -21 -17 -39 -28 -43 -9 -3 -58
8 -107 24 -115 38 -347 96 -449 112 -97 16 -374 15 -470 0 -332 -55 -612 -158
-875 -323 -154 -98 -386 -277 -521 -404 -185 -174 -285 -228 -444 -240 -196
-14 -348 39 -474 165 -111 111 -168 230 -178 376 -15 216 69 388 288 585 296
267 452 384 739 558 173 105 292 164 490 245 344 140 583 202 886 227 71 5
147 12 169 14 62 6 376 -3 505 -14z m1882 -936 c114 -27 195 -77 302 -188 323
-333 541 -703 721 -1226 84 -245 127 -485 146 -810 30 -533 -33 -928 -231
-1439 -188 -486 -471 -924 -846 -1308 -123 -125 -148 -146 -214 -177 -41 -20
-99 -40 -129 -46 -82 -15 -239 -12 -302 6 -195 57 -341 201 -410 403 -27 77
-27 275 0 352 36 106 71 160 179 272 405 423 628 847 729 1384 25 133 28 170
27 358 -1 236 -10 309 -73 555 -82 327 -228 593 -463 848 -146 158 -194 280
-185 472 4 88 9 117 35 177 35 85 102 182 164 239 138 127 350 177 550 128z
m-2091 -635 c425 -43 836 -244 1183 -579 145 -141 241 -270 321 -433 69 -143
113 -268 146 -417 30 -137 37 -432 15 -594 -70 -496 -322 -951 -745 -1343
-401 -371 -726 -545 -1161 -619 -123 -21 -466 -26 -625 -8 -259 28 -605 92
-995 184 -132 32 -169 44 -186 63 -33 38 -137 595 -180 957 -22 189 -30 567
-15 726 50 538 256 963 665 1369 246 245 459 403 701 521 299 146 587 203 876
173z m-3339 -706 c183 -270 433 -449 735 -527 79 -20 131 -39 137 -49 8 -12 0
-47 -31 -139 -53 -156 -66 -210 -98 -387 -38 -218 -50 -464 -36 -717 26 -482
99 -896 313 -1794 54 -223 61 -267 61 -355 0 -94 -2 -106 -42 -208 -67 -169
-154 -262 -317 -339 -87 -41 -92 -42 -215 -46 -147 -5 -199 6 -321 70 -142 73
-246 211 -292 388 -73 276 -207 908 -280 1320 -125 709 -143 1312 -56 1865 21
134 85 398 132 545 46 145 166 425 200 468 21 25 39 10 110 -95z m-1189 -3012
c100 -7 122 -11 139 -29 17 -16 31 -72 69 -264 26 -134 80 -380 119 -548 87
-370 88 -378 66 -386 -9 -4 -85 1 -169 10 -480 52 -881 50 -1232 -6 -217 -34
-538 -118 -702 -183 -34 -14 -69 -22 -77 -19 -9 3 -22 29 -30 58 -8 28 -26 94
-40 146 -33 120 -107 271 -184 375 -77 105 -226 246 -334 317 -48 32 -89 62
-93 67 -12 20 38 48 217 123 326 138 532 203 803 252 260 48 440 70 715 89 97
7 621 5 733 -2z m4971 -487 c9 -8 19 -27 22 -42 50 -226 153 -425 310 -600 56
-63 214 -187 312 -245 31 -19 52 -39 52 -49 0 -13 -42 -39 -151 -94 -429 -214
-759 -305 -1264 -345 -334 -27 -1054 20 -1100 71 -11 12 -30 92 -56 232 -73
394 -69 364 -54 453 20 109 19 309 -1 418 -23 126 -24 125 142 93 703 -137
1207 -108 1699 98 72 30 70 30 89 10z m-7928 -515 c79 -14 228 -86 286 -138
124 -110 196 -259 205 -421 6 -111 -4 -171 -49 -278 -27 -65 -47 -93 -127
-178 -293 -308 -468 -552 -584 -816 -116 -264 -184 -535 -202 -813 -12 -185
29 -466 101 -701 44 -142 49 -169 35 -178 -6 -4 -57 -18 -114 -32 -56 -13
-127 -34 -157 -46 -249 -96 -479 -276 -615 -482 -54 -81 -75 -105 -90 -103
-44 5 -240 534 -289 777 -47 232 -61 392 -60 685 0 491 59 793 241 1240 107
261 182 403 355 670 123 189 403 525 559 669 132 122 325 178 505 145z m3073
-593 c164 -17 452 -57 591 -81 53 -9 91 -22 103 -33 21 -22 51 -168 96 -482
105 -713 77 -1226 -94 -1720 -84 -242 -266 -562 -450 -790 -275 -342 -482
-519 -775 -663 -490 -241 -1065 -269 -1524 -74 -197 84 -356 193 -513 353
-296 302 -495 677 -570 1078 -21 113 -24 425 -5 536 77 443 293 826 673 1195
68 66 166 153 217 193 368 284 822 449 1382 502 141 13 689 4 869 -14z m2363
-421 c4 -16 17 -111 27 -210 60 -550 52 -1061 -24 -1515 -44 -263 -55 -308
-155 -615 -183 -565 -499 -1091 -963 -1600 -210 -230 -306 -304 -443 -340 -70
-18 -219 -21 -288 -5 -88 20 -215 90 -282 155 -73 72 -149 197 -166 274 -20
92 -15 254 10 336 29 95 63 146 188 278 415 437 705 902 828 1330 33 114 91
384 111 516 23 153 37 436 30 601 -7 162 -30 433 -45 527 -17 104 -12 106 153
72 86 -18 125 -20 247 -16 125 4 164 10 276 40 176 47 336 119 429 191 30 24
57 16 67 -19z m-5459 -3200 c98 -26 190 -79 279 -163 312 -293 576 -436 978
-527 345 -78 644 -71 999 22 75 19 153 38 173 40 42 6 36 20 87 -196 68 -282
255 -552 499 -719 64 -44 92 -69 90 -80 -4 -23 -134 -78 -353 -150 -368 -122
-723 -171 -1150 -159 -468 13 -766 77 -1175 250 -362 153 -647 343 -943 627
-127 122 -179 203 -212 330 -25 95 -17 244 17 328 68 166 172 284 311 351 48
23 106 46 130 50 69 14 209 12 270 -4z"/>
</g>
</svg>
